<svg xmlns="http://www.w3.org/2000/svg" width="218.81" height="201.1" viewBox="0 0 218.81 201.1"><defs><style>.cls-1{fill:#d6b2ce;}.cls-2{fill:#fff;}</style></defs><g id="Layer_3" data-name="Layer 3"><path class="cls-1" d="M54.26,101.3c6.4-4,7-13.29.54-17.62-7.34-4.91-15.5.57-18.91,7.33-3.25,6.42-7.18,16.11-5.41,23.41,2.26,9.29,12.94,9.23,18.66,3.36,4.9-5,9.18-12.68,10.34-19.63C60.8,90.23,54.79,82.63,46.28,85c-7,2-11.93,10.84-15,16.83-3.36,6.55-7.38,15.71-.75,21.68,7.3,6.58,17.06,1,20.57-6.58,4.28-9.22,7.7-18.93,11.51-28.36l-14.46-4-3.78,18c-1.08,5.1-2.49,10.49,1.56,14.72,3.48,3.63,9.38,4.08,13.64,1.49,4.83-2.94,6-8.45,6.27-13.68.43-8.62-12.39-9.95-14.74-2l-2.57,8.73a7.58,7.58,0,0,0,1.93,7.3,29.09,29.09,0,0,0,16.63,8.78c9.56,1.44,13-10.84,4-14.46-2-.82-3.14-2.53-4.09-4.38L56.72,119.36l19.42,10.19c8.65,4.55,15.4-7.44,7.57-13l-6.66-4.68c-7.26-5.11-14.54,5.74-9.09,11.78l12.58,13.93L91.15,127l-4.7-5c-5.38-5.74-14,.33-12.53,7.3l7.3,33.57,14.47-4-6.8-30c-2.14-9.42-16.53-5.43-14.47,4l10.8,49.34,14.46-4-6.67-24-14.47,4,12.78,34.38L105,186.86l-11.3-24.21c-3-6.51-14.91-3.55-14,3.79a69.9,69.9,0,0,0,9.37,27.76c4.21,7,16.85,2.43,13.7-5.77a67.89,67.89,0,0,0-11.22-19.26c-4.73-5.73-15,.41-12.54,7.3A84.22,84.22,0,0,0,92.89,201c4.57,5.7,15.33-.47,12.54-7.3l-4.72-11.51-12.54,7.3L99,202.09c5.63,6.51,16.08-1.87,11.78-9.09l-8.36-14c-5.09-8.55-16.61-1.06-12.95,7.57a58.94,58.94,0,0,0,17.82,23.27c2.67,2.09,6,3,9.09,1.17,2.71-1.58,4.57-5.38,3.45-8.47a113,113,0,0,0-15.39-29c-4.87-6.57-15.82-3-13.71,5.78a93.88,93.88,0,0,0,14.32,31.85c4.69,6.69,16.07,2.85,13.71-5.78A88.5,88.5,0,0,0,104.68,176c-4.75-6.44-16.19-3-13.71,5.78l6.13,21.59,14.46-4a46.85,46.85,0,0,0-9.84-16.9c-3.51-3.9-11.68-2.25-12.54,3.31-1.05,6.84.47,13.33,5.83,18,4.36,3.83,13.54,1.69,12.81-5.31l-1.68-16-12.8,5.3,9.17,9.41c5.64,5.79,13.69-.36,12.53-7.29a162.54,162.54,0,0,0-10.46-36.2c-1.55-3.71-5-6.43-9.22-5.23a7.59,7.59,0,0,0-5.24,9.22,91.28,91.28,0,0,0,14.14,29.09c4.8,6.54,16,3,13.71-5.78l-9.63-36.82-14.46,4,7.9,25.51c2.85,9.24,16.58,5.44,14.46-4l-6.3-28-14.47,4,5.7,22.61c2,8.06,15.2,6.57,14.73-2l-1.54-28.08c-.4-7.24-10.07-10.46-14-3.79l-5,8.47,14,3.78,1.4-16.32c.75-8.78-12.22-9.68-14.73-2l-3.25,9.9,14.47,4,2.55-11.54c2.12-9.59-11-12.86-14.46-4l-8.33,21.29,14.46,4a96.83,96.83,0,0,1,6.32-21.28l-13-7.57-4,9.28,13.7,5.78a52.3,52.3,0,0,1,5.07-13.86c3.87-7.16-6.08-15.88-11.78-9.09L87.36,127.86,99.14,137a67.84,67.84,0,0,1,11.18-14.12c6.12-6-1.72-16.07-9.09-11.78l-16.48,9.58,9.09,11.78L111.26,117c6.36-5.61-1.94-16.38-9.09-11.78l-18,11.61,9.08,11.77a84.33,84.33,0,0,1,20-17.59c8.14-5.12.76-17.93-7.57-13L88.51,108.3l9.09,11.78A104.39,104.39,0,0,1,123,101.88L113.93,90.1,97.41,104.25c-5.52,4.74.35,15.24,7.3,12.53L132,106.18l-5.78-13.71-14.73,6.69,7.57,13a124.62,124.62,0,0,1,26.15-10.65c9.3-2.62,5.4-16.69-4-14.46A67.81,67.81,0,0,0,115.7,99c-6.32,4.81-3.07,16.2,5.78,13.71l24.3-6.84L140,92.11l-25.61,18.16,7.57,13,15.63-11.16c7.73-5.53,1-17.73-7.57-13a152.39,152.39,0,0,0-28.54,20.55c-6.23,5.66,2,16.57,9.09,11.78l14.24-9.57-9.09-11.78-13.43,11.64c-7.33,6.36,3.29,16.77,10.61,10.61l2.58-2.18-10.6-10.61L98.57,127l10.61,10.61a114.2,114.2,0,0,1,50.71-36.53l-5.78-13.71-14.42,8c-6.07,3.39-3.84,14.94,3.79,14l20-2.55c9.29-1.18,10-14.83,0-15a37.35,37.35,0,0,0-19.77,5.24c-7.56,4.45-2.39,15.4,5.77,13.71l22.63-4.68-4-14.46-11,2.39,5.78,13.71a62.87,62.87,0,0,0,28.82-33.13,32,32,0,0,0,1.6-4.91c.65-3.18-.89-4.21-1.57-6.86-.52-2,0-3.3,2.31-3.76s4.73,1,6.14,2.86c.48.64,1,2.86,1.49,3.2q6.44-.24,4.17-2.79a6.9,6.9,0,0,1-.87-2c-2.55-6.72-12.2-7.49-14.46,0l-1.87,6.17h14.47l-1.64-4.83c-3.19-9.37-15.78-5.39-14.47,4L189,79.7c1,7.26,13.24,7.06,14.46,0l.79-4.59c.65-3.72-.68-7.31-4.34-8.85-3.18-1.34-7.76-.31-9.36,3.07-1,2.15-2.22,4.28-3.09,6.49-.1.28-1.06,2.64-.13,1.32-.72,1-2.35,1.7-3.27,2.54a24.94,24.94,0,0,0-6.94,11.41l14.73,2,0-2.84-11.28,6.48,1.13-7,3.78,1-1.11-.5c-3.86-1.73-7.83-1-10.26,2.69A17,17,0,0,0,172,107.13l11-8.47-2.34-1.4c-7.27-4.36-15.24,5.81-9.09,11.78l3.23,3.14,10.61-10.61-3.13-2.45L175,111.66l4.58,1,4-14.46-8.79-1.44c-9.52-1.56-13.09,11-4,14.46l7.3,2.78c5.75,2.18,10.29-4.16,9.23-9.23l-.54-2.59-13.71,5.78a28.3,28.3,0,0,0,13.43,10.48c5.08,2,11.24-4.15,9.23-9.23A17.75,17.75,0,0,0,188,99.69c-7.62-4.56-14.47,5.53-9.09,11.78l10.86,12.6,10.61-10.6-3.2-3.5-10.6,10.6,4.85,5.05,3.31-12.54-4.18.81c-3.7.71-6.65,5.66-5.24,9.22l8.83,22.45c3.48,8.83,16.64,5.63,14.47-4l-4.73-20.9-14.47,4A97.11,97.11,0,0,0,200,147.25c4.73,7.38,15.22,2.5,13.71-5.77A61.4,61.4,0,0,0,207,122.94l-13,7.57,10.82,17.94,13-7.57-6-8.66c-4.68-6.71-16.05-2.84-13.71,5.78l6.85,25.16c2.57,9.48,16.06,5.36,14.46-4L217,145.39l-14.47,4,4.15,22c1.55,8.23,15.39,6.45,14.73-2l-1.2-15.19h-15a104.44,104.44,0,0,1-.53,27.7l14.73,2L220.91,171c1-8.74-12.23-9.63-14.73-2l-6.38,19.57,14.73,2a37.84,37.84,0,0,1,2.82-11.4c3.12-7.82-10.26-13.54-13.71-5.78l-8.32,18.72c-3.85,8.67,7.67,15.91,13,7.58l5.52-8.71-13.71-5.78c-5.38,14.72-23.17,19-37,20.75-15.46,2-33.83,3.17-45.59-9L116,208.71c4.16-2.1,9-1.71,13-4.32s7.17-7.17,6.93-12.3-3.71-8.9-7.84-11.43c-2-1.26-4.54-2-6.41-3.58-.5-.42-1-1.31-1.48-1.62-1.24-.73-.48,1.77-3.41.36,6.45,3.1,14.34-3.4,10.26-10.26-3.17-5.33-9.49-8.13-15.48-5.95-7.71,2.81-6.86,14.6,2,14.74a98.44,98.44,0,0,0,54.12-15.07c15-9.57,30.15-26.09,23.15-45.32l-13.71,5.78q12.5,26.51,25,53c3.57,7.58,17,2.09,13.71-5.78l-11-26.35c-3.67-8.8-16.23-5.71-14.47,4L196.48,178l13.71-5.78A151.55,151.55,0,0,1,200,145.36c-2.18-7.85-15.77-6.65-14.74,2l4.11,34.15,14.73-2-8.55-33.36c-2-7.94-15.84-6.57-14.73,2l4.88,37.62,14.73-2-8.95-35.67c-2.38-9.51-16.08-5.36-14.46,4l6.76,39.11,14.47-4-6.86-35.13c-1.59-8.18-15.66-6.46-14.73,2l3.92,35.5h15L193.24,170h-15l3.18,25.76,14.73-2-4.58-23.18c-1.66-8.42-14.72-6.3-14.73,2l0,22.32h15l-2.13-24c-.33-3.71-2.6-6.9-6.51-7.37-3.3-.39-7.7,1.64-8.23,5.38l-3.73,26.4,14.73,2-.8-18.73c-.34-8-13.39-10.76-14.73-2l-2.59,16.89,14.73,2L183.91,179c.61-7.36-10.72-10.29-14-3.78l-12.15,24.27,14,3.79a43.47,43.47,0,0,1,3.58-17.84l-14.47-4a82.54,82.54,0,0,1-6.6,19.77l12.95,7.57a31.71,31.71,0,0,1,13.54-15.5l-11-8.47-6.17,17.92c-2.09,6.11,5.67,12,11,8.47a47,47,0,0,0,12.56-12.1c4.3-5.92-4.33-14.71-10.26-10.26l-18.62,14,11,8.47a45.31,45.31,0,0,1,7.43-18.34c2.11-3.08.83-7.54-1.93-9.67-3.18-2.45-6.87-1.77-9.85.59l-18.6,14.72,12.54,7.3a42.19,42.19,0,0,1,8.21-13.33c6.43-7.14-3.66-17.41-10.61-10.61A98.47,98.47,0,0,1,134.8,198l10.26,10.26a50,50,0,0,1,11.84-12.87l-10.6-10.61L129.56,198.2l11.77,9.09A57.74,57.74,0,0,1,152,193.84a7.61,7.61,0,0,0,0-10.61c-3.12-3.18-7.44-2.48-10.61,0l-16.74,13.11,12.54,7.3a41.45,41.45,0,0,1,4.94-14c3.71-6.43-3.76-14.16-10.26-10.26l-16.76,10.05,11,8.47,1.83-7.06c1.29-5-3.68-11.48-9.23-9.22l-3.92,1.59,7.29,12.54,13.42-11c6.13-5-.57-14.14-7.3-12.53L112.38,176c-9.43,2.25-5.41,16.41,4,14.47a160.3,160.3,0,0,0,59.82-25.91c7.77-5.48.67-18.24-7.57-12.95l-29.1,18.66c-8.32,5.33-1.11,16.71,7.57,12.95l26.42-11.44L164.42,160l-22.74,18.24c-7.05,5.66,1.93,15.19,9.09,11.78L179,176.56l-9.09-11.78-15.65,14.46c-5.23,4.83.22,15.4,7.3,12.54l4.1-1.66c3.74-1.51,6.42-5,5.24-9.22-1-3.56-5.43-6.77-9.22-5.24l-4.11,1.65,7.3,12.54,15.65-14.46c6.6-6.1-1.78-15.26-9.09-11.78L143.2,177l9.09,11.78L175,170.58c2.91-2.33,2.65-7.17.59-9.85-2.46-3.18-6.19-3.44-9.68-1.93l-26.42,11.44,7.57,12.95,29.1-18.66-7.57-12.95A149.58,149.58,0,0,1,112.38,176l4,14.47,15.81-3.77-7.29-12.53-13.42,11c-5.62,4.63.43,15.33,7.29,12.54l3.93-1.6-9.23-9.22-1.82,7c-1.61,6.24,5.31,11.89,11,8.47l16.76-10-10.26-10.26a53.31,53.31,0,0,0-6.46,17.54c-1.34,7.7,6.56,12,12.54,7.3L152,193.84l-10.61-10.61a71.9,71.9,0,0,0-13,16.48c-4.5,7.83,5.43,14.19,11.78,9.09l16.74-13.42c3.19-2.56,2.62-7.94,0-10.61-3.12-3.19-7.43-2.48-10.6,0a61.42,61.42,0,0,0-14.19,15.91C128,207.24,136,214.44,142.37,211a113.46,113.46,0,0,0,24.74-18.42L156.5,181.92a61.65,61.65,0,0,0-12.06,20c-1.16,3.06.77,6.91,3.44,8.47,3.1,1.81,6.45.92,9.09-1.17l18.6-14.73-11.78-9.09a55.74,55.74,0,0,0-8.95,21.92c-1,5.6,5.22,12.83,11,8.47l18.62-14-10.26-10.27a27,27,0,0,1-7.18,6.72l11,8.47,6.16-17.92c2.19-6.36-5.61-11.59-11-8.47a44.85,44.85,0,0,0-18.92,20.88c-1.63,3.74-1.08,8,2.69,10.26,3.28,2,8.48.93,10.26-2.69a97.7,97.7,0,0,0,8.12-23.35c2-9.69-10.81-12.73-14.47-4a54.44,54.44,0,0,0-4.11,21.83c.1,7.08,10.53,10.68,14,3.78l12.14-24.27-14-3.79-1.35,16.52c-.69,8.33,13.44,10.38,14.73,2l2.59-16.89-14.73-2,.8,18.73c.34,8,13.49,10.76,14.73,2l3.74-26.41-14.73-2,2.13,24c.84,9.46,15,9.82,15,0l0-22.32-14.73,2,4.57,23.18c1.62,8.17,15.78,6.45,14.74-2L193.24,170c-.49-4-3.09-7.5-7.5-7.5-3.67,0-8,3.45-7.5,7.5l2.35,19.57c.49,4,3.1,7.5,7.5,7.5,3.71,0,7.95-3.45,7.5-7.5l-3.92-35.5-14.73,2,6.85,35.13c1.86,9.52,16.1,5.41,14.47-4l-6.77-39.11-14.46,4L186,187.74c2,8,15.84,6.56,14.73-2l-4.88-37.62-14.73,2,8.54,33.36c2,7.95,15.77,6.58,14.74-2l-4.11-34.15-14.73,2a173.35,173.35,0,0,0,11.7,30.43c4,8.1,15.14,2.07,13.71-5.78l-6.08-33.35-14.47,4,11,26.36,13.71-5.78q-12.48-26.52-25-53c-3.58-7.62-16.62-2.23-13.7,5.78,5.19,14.25-9.9,25-20.67,31a83.67,83.67,0,0,1-42.14,10.39l2,14.73c.78-.54.3-.85-1.45-1l10.26-10.26c-13.11-6.29-23.81,8.3-17.12,20.16a21,21,0,0,0,6.26,6.54c1.46,1.05,5.26,4.1,7,4,.84.82,1.11.52.82-.91.45-1.44.29-1.73-.48-.88a23.38,23.38,0,0,0-3.58,1,35.9,35.9,0,0,0-8.89,2.91c-4.41,2.24-4.69,8.49-1.51,11.78,15.7,16.29,39.14,15.78,59.93,12.92,20-2.76,40.23-10.89,47.68-31.27,3-8.26-9.32-12.69-13.7-5.78l-5.52,8.7,13,7.58L216.59,181l-13.71-5.78a51,51,0,0,0-3.35,15.38c-.65,8.76,12.21,9.7,14.73,2L220.65,173l-14.74-2-1.49,12.94c-1,8.32,13.39,10.33,14.73,2a118.89,118.89,0,0,0,1.07-31.69c-.42-4-3.14-7.5-7.5-7.5-3.81,0-7.82,3.44-7.5,7.5l1.2,15.19,14.73-2-4.14-22c-1.79-9.52-16.08-5.43-14.47,4l2.37,13.78,14.46-4L212.53,134l-13.71,5.78,6,8.66c5.45,7.8,18,.82,13-7.57L207,122.94c-5-8.27-17.61-.9-13,7.57a48.45,48.45,0,0,1,5.21,15L213,139.68a81.18,81.18,0,0,1-9.07-19c-3-9.19-16.6-5.46-14.47,4l4.73,20.91,14.47-4-8.84-22.44-5.24,9.22,4.18-.81c5.75-1.1,7-8.73,3.31-12.53l-4.85-5c-6.73-7-17.1,3.5-10.6,10.6l3.19,3.5c6.57,7.19,16.85-3.36,10.61-10.6l-10.86-12.61-9.09,11.78a2.3,2.3,0,0,1,.81.52l9.23-9.23a10.38,10.38,0,0,1-4.47-3.58c-4.89-6.89-15.5-2.81-13.71,5.78l.54,2.59,9.23-9.23-7.3-2.77-4,14.46,8.79,1.44c9.35,1.53,13.57-12.44,4-14.46l-4.58-1c-6.55-1.38-13.71,7.52-7.3,12.54l3.13,2.45c3.22,2.51,7.47,3.07,10.61,0a7.59,7.59,0,0,0,0-10.61l-3.23-3.14-9.09,11.78,2.34,1.41c5.62,3.36,12.77-2.21,11-8.47-.41-1.46-.39-1.2.56-2.64l-10.26,2.69c13.54,6.08,23.31-10.66,11.34-19.42-4.71-3.46-11.32,1.22-11.29,6.47l0,2.84c.06,8.54,12.26,10.07,14.74,2,1.18-3.86,3.59-4.28,6.11-6.92,2.76-2.89,4.11-7.71,5.8-11.26l-13.71-5.78L189,75.71h14.46l-1.94-13.93-14.47,4,1.64,4.83c2.36,6.92,12.26,7.31,14.47,0L205,64.43H190.53c1.64,4.34,3.59,8.73,7.77,11.22a12.28,12.28,0,0,0,14.2-.88c7.67-6.6,3.51-18.32-2.63-24.38C203.39,44,193.19,42,185.15,46.68c-8.46,4.89-11.62,16.87-5.53,24.86l-.76-5.78a47.64,47.64,0,0,1-23.53,29.07c-7.74,4.18-2.28,15.47,5.78,13.71l11-2.39c9.45-2.05,5.43-16.41-4-14.46l-22.62,4.68,5.78,13.7a22.26,22.26,0,0,1,12.2-3.19v-15l-20,2.55,3.78,14,14.42-8c7.26-4,2.38-16.61-5.77-13.71A128.37,128.37,0,0,0,98.57,127c-2.55,3.18-3,7.49,0,10.61,2.65,2.7,8,3.09,10.61,0l6.3-7.5a7.5,7.5,0,0,0-10.6-10.61l-2.59,2.18,10.61,10.61,13.42-11.64c6.39-5.54-2-16.54-9.09-11.78L103,118.48l9.09,11.78a134.73,134.73,0,0,1,25.5-18.2L130,99.1l-15.63,11.17c-7.78,5.56-.34,18.56,7.57,13l25.61-18.16c6.62-4.69,2.89-16.14-5.77-13.71l-24.31,6.84,5.78,13.71a57.32,57.32,0,0,1,21.9-10.44l-4-14.46a142.16,142.16,0,0,0-29.73,12.16c-8.62,4.72-1,16.87,7.57,13l14.73-6.69c7.65-3.47,2.16-16.8-5.78-13.7l-27.25,10.6,7.3,12.54,16.51-14.15c6.75-5.78-1.84-15.51-9.08-11.78A118.36,118.36,0,0,0,87,109.47c-6.09,5.93,1.74,16.17,9.09,11.78L113.2,111l-7.57-13a97.17,97.17,0,0,0-23,20c-5.12,6.12,1.43,16.7,9.09,11.78l18-11.6-9.09-11.78L83.23,121.8c-6.47,5.71,1.84,16,9.09,11.78L108.8,124l-9.09-11.78a84,84,0,0,0-13.52,17.15C82,136.49,92.38,145.13,98,138.46l10.54-12.55-11.78-9.09a66.52,66.52,0,0,0-6.58,17.44c-1.71,7.8,10.2,14,13.71,5.78l4-9.28c1.6-3.75,1.09-8-2.69-10.26-3.17-1.9-8.64-1-10.26,2.69a111.73,111.73,0,0,0-7.83,24.86c-1.78,9.59,11,12.95,14.46,4l8.33-21.29-14.46-4L92.82,138.3c-2.08,9.44,11.46,13.18,14.47,4l3.24-9.9-14.73-2-1.4,16.32c-.66,7.67,10.42,9.86,14,3.79l5-8.47-14-3.78,1.54,28.08,14.73-2-5.69-22.6c-2.37-9.39-16.58-5.41-14.47,4l6.31,28,14.46-4-7.9-25.51c-2.84-9.19-16.92-5.4-14.46,4L103.51,185l13.7-5.78a79.79,79.79,0,0,1-12.63-25.51l-14.46,4a162.84,162.84,0,0,1,10.46,36.19l12.54-7.29-9.18-9.42c-4.21-4.32-13.5-1.35-12.8,5.31l1.68,16,12.8-5.3c-1-.83-2.2-2-2-3.44l-12.54,3.31a28.76,28.76,0,0,1,6,10.28c3,9.08,17.12,5.38,14.46-4l-6.12-21.58-13.71,5.77a77.35,77.35,0,0,1,12.61,25.77l13.7-5.78a82.28,82.28,0,0,1-12.8-28.26l-13.71,5.78A99.81,99.81,0,0,1,105.4,206.5l12.54-7.3A49.74,49.74,0,0,1,102.46,179l-12.95,7.57,8.36,14,11.78-9.09L98.78,178.91c-4.71-5.45-15.38.35-12.53,7.3L91,197.72l12.54-7.29a62.6,62.6,0,0,1-10-18L81,179.78a45.86,45.86,0,0,1,7.37,12.63l13.71-5.78a52,52,0,0,1-7.32-20.19l-14,3.79,11.3,24.2c3.56,7.62,16.68,2.21,13.71-5.78L93,154.27c-3.31-8.89-17.1-5.48-14.47,4l6.68,24c2.6,9.34,16.52,5.41,14.46-4L88.89,128.89l-14.47,4,6.8,30c2.14,9.42,16.52,5.43,14.47-4l-7.31-33.57-12.53,7.3,4.69,5c6.64,7.08,17-3.47,10.61-10.6L78.57,113.09l-9.09,11.78,6.66,4.68,7.57-13L64.29,106.41A7.56,7.56,0,0,0,54,116.67c2.85,5.57,7.35,9,13.06,11.27l4-14.46a16.17,16.17,0,0,1-10-4.93l1.93,7.3,2.57-8.73-14.73-2c-.2,4-.63,0,1.68.26l3.78,1q1.74,6.66,2.15,2l.38-1.8,1.32-6.31,2.46-11.71c2-9.64-10.9-12.8-14.46-4L42,99.91,39,107.12a27.53,27.53,0,0,0-1.3,3.13,7.58,7.58,0,0,1-.56,1q-1.73,2.37,3.73,1l1,3.79c-.15-3.14,2.29-6.84,3.84-9.48,1.22-2.09,3.55-6.95,5.77-7.31h-4q-2.27-6.51-2.87-3.41A14.12,14.12,0,0,1,44,97.94a26.14,26.14,0,0,1-1.58,3.4c-.74,1.38-2.57,5.66-4.16,6.12h4q2.73,6.17,2.93,3.13a15.73,15.73,0,0,1,.41-2.24A49.12,49.12,0,0,1,47,103.29a34.66,34.66,0,0,1,1.86-4.71l.65-1.27c.5-1,.6-1.08.31-.3L46,96l.68-7.63c-8.2,5.05-.67,18,7.57,13Z" transform="translate(-15.48 -32.02)"/><path class="cls-2" d="M130,158.37c3.77-2.55,6-6.14,6-10.81,0-3.39-1.59-6.06,1-8.89,2.41-2.62,6.3-3.76,9.59-4.81,3.75-1.19,8.2-3,12.17-2.49l-3.79-1c-.8-2.65-1.41-3.28-1.85-1.89a19.46,19.46,0,0,1-.91,1.9c-.58,1.14-1.24,2.25-1.93,3.33a34.36,34.36,0,0,1-5.14,6.21c-1.51,1.47-10,9-12.24,7v10.6A171.37,171.37,0,0,1,160,135.84l-7.57-13-16.81,11.75c-7.85,5.49-.36,18.5,7.57,13L160,135.84c7.8-5.46.63-18.26-7.57-13a191.08,191.08,0,0,0-30.11,24c-2.77,2.71-3,7.93,0,10.6,9.92,8.8,22.47,2.4,31.17-5,7.06-6,18.19-19.28,14.55-29.31-4.52-12.43-22.65-5.25-31.06-1.8-5.35,2.19-10.42,5.35-13.55,10.37a19.9,19.9,0,0,0-2.73,7.11,17.18,17.18,0,0,0-.12,5.16l.27,2c-.07,2.23.45,2,1.54-.67-8,5.38-.45,18.39,7.57,13Z" transform="translate(-15.48 -32.02)"/></g><g id="Layer_1" data-name="Layer 1"><path d="M91,115.72a69.57,69.57,0,0,1,75.24-19.89,7.51,7.51,0,0,0,8.47-3.44L183.56,74c1.32-2.74,1.52-6.94-1.17-9.09-4-3.23-5-8.7-1.56-12.88,4.21-5.18,11.57-5.84,17.59-4.13,6.32,1.79,13.38,6.14,16.15,12.38s-2,9.47-7.19,12.1c-6.76,3.44-13.87,6.59-17.68,13.59-3.71,6.81-3.68,16.33,3.57,20.46,5.74,3.27,8.8,8.75,11.64,14.54a214.46,214.46,0,0,1,9.77,22.69c5,14.15,7.27,29.61-.07,43.38-6.07,11.37-16.5,20.05-28.27,25.08-14.68,6.28-31.22,6.89-46.89,5.34-14.6-1.45-31.94-4.09-42.93-14.68-10.75-10.36-15.13-26-16.55-40.46-1.7-17.25-2.26-37.59-19.75-46.81a7.56,7.56,0,0,0-7.57,0C48.08,118.47,36,127,31.78,119c-3.49-6.61.22-18.41,3.11-24.59,3.23-6.93,10-14.29,18.46-13,3,.46,6.38,2.3,7.51,5.31.78,2.08.66,5.65-1.29,7.13-4.67,3.54-4.9,9.44,0,13,8.12,5.81,17.22,8.91,27.06,10.18,4,.53,7.5-3.82,7.5-7.5,0-4.48-3.46-7-7.5-7.5a43.05,43.05,0,0,1-19.49-8.13v13a22.05,22.05,0,0,0-2-36.74C51,61.63,34.1,68.72,25.2,81.34c-8,11.3-13.33,31.37-6.81,44.4,3.59,7.16,10.84,11.2,18.74,11.39,8.58.21,16.15-4.15,23.09-8.7H52.65c7.47,3.93,10.05,12.14,11.11,20,1.21,9,1.32,18,3.11,26.93,3.22,16,10.49,31.76,23.68,41.87,14.77,11.31,35.27,14.25,53.34,15.51,18.53,1.3,37.76-1.12,54.37-9.85,14-7.35,25.83-19.32,31.91-34,7.24-17.48,4-36.49-2.63-53.61A218.62,218.62,0,0,0,216.14,110a52.28,52.28,0,0,0-7-10.11,30.54,30.54,0,0,0-4.66-4.14,15.74,15.74,0,0,0-2.36-1.63c-2.76-1.35-.1,1.12.1,1.12-.41,0,1.68-3.53,1.89-3.75a19.6,19.6,0,0,1,5.05-3.36c3.86-2,7.88-3.65,11.43-6.24,7.16-5.22,11.11-12.93,9.53-21.85-3.41-19.19-28-31.89-46-27-8.93,2.45-16.95,9.13-19.48,18.24-2.36,8.53.12,18.54,7.16,24.16l-1.17-9.09-8.88,18.43,8.47-3.45C139,70.35,102,80.13,80.38,105.11c-6.3,7.26,4.27,17.92,10.6,10.61Z" transform="translate(-15.48 -32.02)"/><path d="M124.77,151.51c-3.57-10.17,3.2-18.89,11.88-23.59,4.9-2.65,10.35-4,15.78-5.12,2.94-.58,5.91-1,8.88-1.45a17.76,17.76,0,0,0,3.62-.42,5.8,5.8,0,0,1,1,0c.93.09.55-.29-1.14-1.15-.41.17.07,6.1.05,6.88a21.29,21.29,0,0,1-1.36,8c-1.76,4.08-5.25,7.17-9,9.37-5,2.93-10.69,4.3-16.33,5.38-5.93,1.14-12.69,2.86-18.74,1.85-9.44-1.58-13.5,12.87-4,14.47,9.2,1.54,18.53-.21,27.61-2,8.5-1.71,16.77-4.58,23.66-9.95,6.25-4.87,11.09-11.66,12.43-19.6,1.2-7.07,2.38-17.91-2.74-23.69-5.85-6.59-15-4.18-22.64-3-8.55,1.34-17,3.41-24.68,7.56-14.29,7.74-24.52,24.16-18.77,40.53,3.17,9.05,17.67,5.15,14.46-4Z" transform="translate(-15.48 -32.02)"/><path d="M147.63,122.51a10.07,10.07,0,0,0-14.15-.17c-4.32,4.32-3.66,10.86-.53,15.58,2.72,4.09,6.12,8,10.94,9.52a12.42,12.42,0,0,0,14.28-5.08c5.81-9.15-2.29-20.24-12.5-19.52-11.14.78-17.18,14.35-11,23.38,6.43,9.49,21.12,6.3,23.35-4.81,1.91-9.56-6.93-21.46-17.39-18.06s-10.76,19.42-3.42,25.92a10.88,10.88,0,0,0,15.08-.68c4-4.31,4-10.6,2.11-15.88s-6.09-9.8-12-10c-6.25-.22-11,4.77-12,10.6-2.26,12.39,8.91,25,21.43,18.84,3.64-1.78,4.63-7,2.69-10.26-2.17-3.71-6.61-4.48-10.26-2.69a8.83,8.83,0,0,1,1.08-.32c2.28-.19.27.85.39.14a20.68,20.68,0,0,0-.69-2.85c.47.44-5.59,2-5,.53a8,8,0,0,0,.64,2.14c1.13,1.73-3.78-.49,1.86-1.5h4c3.14.49.66,2.16,1,.7a9.1,9.1,0,0,0-.18-1.78c-.5-.92-.52.54-4,1.4l-.84-.53.7.7c-.06,0,.24.39.27.4a1.67,1.67,0,0,1,1.83-.95c.52-.4.9-.43,1.11-.1.45.17.73.78.65.76.06.4.05.5,0,.31s0-.64.46-.92c.31.26-.42.68-.73.45-1.08-.82-2.26-1.64-1.16-3.31.21-.32,3.19-2.2,3.22-1.13,0,0-1.28-1-1.54-1.34-.46-.52-.82-1.15-1.29-1.65-1.47-1.57.62-.72-.65,1.08l-2.69,2.69-2.79.38-3.31-1.93.55.55c6.89,6.78,17.5-3.82,10.61-10.61Z" transform="translate(-15.48 -32.02)"/><path d="M136.87,185.42c6.07,11.11,19.16,18.13,31.32,12.18a19,19,0,0,0,10.44-13.43c1.42-7.59-2-14.52-5.83-20.83-5-8.25-17.59-.92-13,7.57,3.09,5.66-.9,10.19-6.59,11-4,.55-6.22,5.69-5.23,9.22,1.21,4.32,5.18,5.8,9.22,5.24,15.73-2.19,22.83-19.69,15.55-33l-13,7.57c2.15,3.53,7.26,10.86,1.37,13.45-5,2.19-9.29-2.65-11.4-6.51-4.63-8.48-17.58-.91-12.95,7.57Z" transform="translate(-15.48 -32.02)"/></g></svg>