<svg xmlns="http://www.w3.org/2000/svg" width="185.24" height="151.38" viewBox="0 0 185.24 151.38"><defs><style>.cls-1{fill:#d6b2ce;}.cls-2{fill:#e3e0d1;}.cls-3{fill:#d5b1cb;}</style></defs><g id="Layer_3" data-name="Layer 3"><path class="cls-1" d="M32.89,101.72c-.6-5-4.58-8.77-9.82-7-2.43.81-4.42,3.48-3.49,6.15a29.24,29.24,0,0,0,11.05,14.66l2.52-9.32c.69,0,.14.35-.32-.73a20.6,20.6,0,0,0-1.5-2.87,12,12,0,0,0-3.45-3.69,7.73,7.73,0,0,0-9.88.91,9.2,9.2,0,0,0-1.74,9.13,10.7,10.7,0,0,0,2.7,4.15c.71.71,5.7,3.62,5.37,4.68l7.35-3a26.63,26.63,0,0,1-9.31-8c-1.69-2.36-5.62-3.71-7.85-1-4.74,5.75-3.4,13.09,2.16,17.76,2.26,1.91,10.15,7.72,10.1.83,0-2.42-3-6.69-4.72-8.26a9.29,9.29,0,0,0-8.1-2.44c-3.73.82-5.09,4.13-5.65,7.56-1.1,6.73,2,12.86,7.44,16.75,3.42,2.47,7.14-1,7.52-4.31.51-4.48-2.44-8-6.62-9.23a4.9,4.9,0,0,0-4.87,1.28c-4.08,5.18-3.45,12.34,2.05,16.38s14.2,3.38,19.69,0c5.33-3.32,6.47-10.89.66-14.44-6.61-4-12.65,1.17-16.15,6.58-2.16,3.34.71,7.37,4.31,7.53a35.85,35.85,0,0,0,16.53-3.35c5-2.21,1.84-8.92-2.52-9.31-4.82-.43-10,.14-12.89,4.52-2.51,3.8-2.11,9,1.72,11.76,8.59,6.24,21.24-7.16,26.5-12.75,3.6-3.82-.06-9.22-4.86-8.35a22.81,22.81,0,0,0-10.48,5c-4.41,3.51.62,9,4.86,8.36a56.05,56.05,0,0,0,22.25-8.4c4-2.55,2.68-9.55-2.52-9.32a19.25,19.25,0,0,0-9.26,2.66c-5,2.91-1.6,10.35,3.85,9.14A100.56,100.56,0,0,0,98,110.66c4.32-3.59-1.48-11.25-6.06-7.86a122.6,122.6,0,0,1-26.57,15.14l3.85,9.14,18.4-11.42c5.48-3.39.64-11.66-5-8.63l-14.22,7.56c-5.69,3-.65,11.62,5,8.64l22.11-11.58-6.06-7.85-4.39,3.56c-4.45,3.6,1.29,10.78,6.06,7.85l17.6-10.78-6.06-7.85L83,112c-4.41,3.47,1.46,11.18,6.06,7.85L116.9,99.8c4.21-3,1.88-11.3-3.85-9.13A51.53,51.53,0,0,0,96.2,100.92c-4.19,3.81,1.26,10.88,6.06,7.85l17.66-11.11c5.43-3.42.51-12-5-8.63L97.54,99.37l6.06,7.85,12.28-9.65c4.5-3.53-1.3-10.77-6.06-7.85L88,103.11,94,111l15.52-12.11c4.56-3.55-1.27-10.6-6.06-7.85L78.66,105.28l5,8.63,19.1-11.44-5-8.64L81.84,104.16l5,8.63a295.6,295.6,0,0,1,34.25-19.45L113.62,89v2.23c0,4,4.21,6,7.52,4.31a35,35,0,0,0,12.19-9.87c4-5.06-2-11.16-7.07-7.07l-17.36,14L116,99.73l16.22-15.32c4.77-4.51-2.18-11-7.08-7.07l-12,9.71,7.07,7.07L132.32,84c4.45-3.71-1.25-10.6-6.06-7.85l-17.57,10,6.06,7.86L126.9,84.4c4.43-3.51-1.36-11-6.06-7.85L103.84,88l6,7.85L126.5,82.68c4.44-3.51-1.36-11-6-7.86L104,85.92l5,8.64L126.6,82.15l-5-8.63-13.63,10a5,5,0,0,0,5,8.63,137.55,137.55,0,0,0,24.74-15.09c4.95-3.78.51-12.21-5.05-8.63a27.82,27.82,0,0,0-9.73,10.39c-2.79,5.21,3.56,9.59,7.86,6.06L144.5,73.65l-7.07-7.07-9.78,11.07c-4.37,4.94,2.08,10.94,7.07,7.07L149,73.66c4.45-3.45-1.41-11.09-6.06-7.85l-12.38,8.62,6.06,7.85,10.71-12c4.32-4.86-2.17-11.18-7.08-7.07L127.47,73.87l7.07,7.07,8.68-10.35c3.34-4-1.21-11.56-6.06-7.86l-8.76,6.7,6.06,7.85,8-7.41c4.85-4.48-2.15-10.91-7.08-7.07L123,72.51c-4.43,3.45,1.49,11.23,6.06,7.85l17.21-12.75-7.52-4.32-.13,2.65c-.2,3.88,4.36,6.1,7.52,4.32A29.6,29.6,0,0,0,156.82,59.9c3.17-5.09-3.71-9.53-7.85-6.06a44.26,44.26,0,0,0-10.24,12.42c-2.89,5.14,3.61,9.64,7.85,6.06a66.54,66.54,0,0,0,12.33-13.93c3.11-4.64-4.3-10.53-7.86-6L145.76,59c-3.91,4.92,2.69,12,7.07,7.07l8.5-9.45-7.85-6.06L144.36,65c-3,4.72,4.11,10.41,7.85,6A74.5,74.5,0,0,0,163,54.75c2.3-4.76-3.94-10.7-7.85-6.06l-9.07,10.76,7.85,6.06,11.36-18c3.52-5.58-4.86-10-8.63-5l-11.42,15,9.14,3.85,5.32-12.9c1.87-4.54-5.33-8.7-8.36-4.87l-10,12.62,7.85,6,6-10.3-8.64-5.05-3.21,6.45c-2.11,4.22,2.34,9.69,6.84,6.84,6.84-4.33,10.58-12.58,8.2-20.55C156.07,31.84,148,26.84,140.09,27.3L144.91,31c-2.34-6.44,7.9-7.59,12-8.18l-2.65-9.64-21.43,8.9,3.85,9.14a116.69,116.69,0,0,1,15.1-7.52c3.15-1.27,12.29-6.2,14.42-2.27,2,3.67.31,9.83-1,13.47a29.55,29.55,0,0,1-8.43,12.24L165.18,52l5.88-22.62c1-3.95-3.62-8.24-7.34-5.65a29.57,29.57,0,0,0-11.46,15c-1.9,5.4,6.37,8.71,9.14,3.85l6.18-10.86c3.19-5.61-5.26-10.53-8.64-5l-4.65,7.54,8.64,5,5.51-12.7c2.31-5.32-3.28-9.61-7.85-6.06a69,69,0,0,0-12,12l7.85,6.06,8.28-11.89c3-4.33-2.74-9.06-6.84-6.84l-8.25,4.46,6.06,7.86L158.58,29c3.1-3.29,0-10.42-4.87-8.35l-8.39,3.53,3.85,9.13,3.3-2c5.56-3.31.65-11.58-5.05-8.63l-5.37,2.77,6.84,6.84,4.61-7c1.61-2.43.28-5.29-1.79-6.84l-3-2.24,1.79,6.84a9,9,0,0,1,9.16-4.53c6.29,1.05,9-8.59,2.66-9.64C154,7.52,146.25,10.72,141.86,18c-1.51,2.51-.35,5.24,1.79,6.84l3,2.25-1.79-6.84-4.62,7c-2.91,4.42,2.67,9,6.84,6.84l5.38-2.78-5.05-8.63-3.29,2c-4.67,2.78-1.54,11.4,3.85,9.14l8.39-3.53-4.87-8.36-2.92,3.11a5,5,0,0,0,6.06,7.85l8.25-4.46-6.84-6.85-8.28,11.89c-3.21,4.6,4.33,10.54,7.85,6.06a69,69,0,0,1,12-12l-7.85-6.06-5.52,12.71c-2.5,5.76,5.17,10.67,8.64,5l4.65-7.53-8.64-5-6.18,10.86,9.14,3.86a18.07,18.07,0,0,1,6.86-9l-7.34-5.64-5.89,22.62c-1.29,5,4.71,8.15,8.36,4.86,9.46-8.5,18.2-26.89,10.31-39-4.29-6.6-11.74-5.74-18.24-3.6a128.22,128.22,0,0,0-24.31,11c-4.73,2.74-1.52,11.37,3.85,9.14l21.42-8.9c6-2.48,3.76-10.56-2.65-9.64-10,1.42-23.58,7.87-19,20.48.72,2,2.52,3.81,4.82,3.67,8.3-.48,12.54,9.53,5.06,14.27L152,58.41,155.21,52c2.85-5.72-5.38-10.67-8.64-5.05l-6,10.31c-2.74,4.74,4.24,10.64,7.86,6.06l10-12.62-8.35-4.86-5.32,12.91c-2.35,5.69,6.05,7.92,9.14,3.85L165.3,47.51l-8.63-5-11.36,18c-3,4.72,4.15,10.46,7.85,6.06l9.07-10.76-7.85-6.06A64.49,64.49,0,0,1,145.14,64L153,70.05l9.11-14.46c3-4.75-4-10.32-7.85-6.06L145.76,59l7.07,7.07,5.29-6.64-7.85-6.06a57.17,57.17,0,0,1-10.76,11.9l7.85,6A36.77,36.77,0,0,1,156,60.91l-7.85-6.06A19,19,0,0,1,141,61.62l7.53,4.32.13-2.65c.18-3.54-4.48-6.57-7.52-4.32L124,71.72,130,79.58l12.48-9.71-7.08-7.07-8,7.41c-4.08,3.77,1.49,11.35,6.06,7.85l8.76-6.69-6.06-7.85-8.68,10.35a5,5,0,0,0,7.07,7.07L147.3,70.26l-7.08-7.07-10.7,12c-3.56,4,1.14,11.28,6.06,7.85L148,74.44l-6.06-7.85L127.65,77.65l7.07,7.07,9.78-11.07c4.32-4.89-2.13-11.12-7.07-7.07L123.72,77.83l7.85,6.06a17.44,17.44,0,0,1,6.14-6.81l-5.05-8.63a137.77,137.77,0,0,1-24.74,15.09l5,8.63,13.63-10c5.1-3.75.26-12.38-5-8.63L104,85.92c-5.19,3.67-.34,12.27,5,8.64l16.46-11.1-6.06-7.86L102.82,88.75c-4.43,3.51,1.37,11,6.06,7.85l17-11.41-6.06-7.86L107.68,87c-4.53,3.61,1.27,10.59,6.06,7.86l17.57-10L125.25,77,113.14,87.05c-5,4.14,2.13,11.08,7.07,7.07l12-9.71-7.08-7.07L108.89,92.66c-4.78,4.51,2.17,11,7.07,7.07l17.36-14-7.07-7.07a28.57,28.57,0,0,1-10.17,8.31l7.53,4.32V89c0-4-4.21-5.92-7.52-4.31a295.1,295.1,0,0,0-34.26,19.45c-5.34,3.52-.38,12.15,5,8.63l15.92-10.32c5.36-3.49.51-12-5-8.64l-19.1,11.45c-5.51,3.3-.55,11.85,5,8.63l24.8-14.27-6.05-7.86L86.93,103.89c-4.51,3.51,1.3,10.77,6.06,7.85l21.88-13.39-6.06-7.85-12.28,9.65c-4.52,3.55,1.28,10.7,6.06,7.85l17.33-10.34-5-8.63L97.22,100.14l6,7.85a38.88,38.88,0,0,1,12.44-7.68l-3.85-9.14-27.8,20.09,6.06,7.85,19.65-15.46c4.49-3.54-1.3-10.78-6.06-7.86l-17.6,10.79,6.06,7.85,4.4-3.56c4.58-3.71-1.26-10.36-6.06-7.85L68.39,114.59l5,8.64,14.22-7.57-5-8.63-18.4,11.41c-4.58,2.84-1.6,11.37,3.86,9.14a132.1,132.1,0,0,0,29-16.14L91,103.58a89.88,89.88,0,0,1-38.1,18.51l3.85,9.13a8.26,8.26,0,0,1,4.21-1.29l-2.52-9.32A49.31,49.31,0,0,1,38.55,128l4.86,8.35a12.81,12.81,0,0,1,6.07-2.46l-4.87-8.36a62.85,62.85,0,0,1-8.92,8c-1.07.77-3.57,1.72-4.24,2.77-1.61,2.51,3.33,2.61,4.9,2.75l-2.53-9.32a24.8,24.8,0,0,1-11.48,2l4.32,7.52c.75-1.16,3.8-4,1.27-5.49-.46-.27-3.06.8-3.69.88-1.26.15-6.29-.7-5.39-1.85L14,134.09l-.72-.41,7.52-4.32a6.82,6.82,0,0,1-2.25-7.94l-3,2.3s2.3,5.24,2.59,5.7a10.22,10.22,0,0,0,4.09,3.82c3.18,1.57,7.63,1.32,10.1-1.48a7.64,7.64,0,0,0-.2-10c-1.38-1.61-12.39-6.62-10.54-8.86l-7.85-1a37.67,37.67,0,0,0,12.89,11.57,5.07,5.07,0,0,0,7.35-3A9.68,9.68,0,0,0,32.81,112C32,110.79,27.76,106,26,106c-.69-.34-1.24,0-1.66,1-1.46.53-1.71,1.29-.75,2.3a8.71,8.71,0,0,0,2.05,3.29,8.86,8.86,0,0,0,7.48,3.55c5.18-.23,6.52-6.47,2.53-9.32a17.41,17.41,0,0,1-6.45-8.68l-3.5,6.15-2.84-2.62c.77,6.31,10.78,6.39,10,0Z" transform="translate(-0.55 -0.98)"/><path class="cls-2" d="M66.38,48.34l-3.85-6.45a5.06,5.06,0,0,0-8.64,0,47.5,47.5,0,0,0-7.31,21.7c-.21,3.16.08,6.24,2.81,8.23a6.5,6.5,0,0,0,8.16-.6C60.22,69,62,64.68,63.49,61.64A91.73,91.73,0,0,0,67.94,51,86.87,86.87,0,0,0,72.28,27.9c.27-4.48-5.56-6.38-8.53-3.53A72.38,72.38,0,0,0,43.18,60.11c-.87,3.77-2.58,9,.23,12.27,7.1,8.38,14.75-8.49,17.27-13A204.51,204.51,0,0,0,74.17,30c1.75-4.71-5.09-8.43-8.35-4.86C55.49,36.43,47.29,49.31,39.23,62.25l8.63,5L64.12,32.08a5,5,0,0,0-8.63-5L32.29,59.24l9.14,3.86A114,114,0,0,1,58.49,31.28l-8.64-5.05a284,284,0,0,1-18.52,27l8.36,4.86A169.89,169.89,0,0,1,53.54,30.5l-8.64-5A166,166,0,0,1,30.7,45.32l7.86,6.06,6.6-11.79c2.39-4.28-2.48-9.48-6.85-6.84a33,33,0,0,0-8,6.69l7.85,6.06L42,38.38c3.05-5.66-5.31-10.58-8.63-5C22.16,52,23.2,76.71,36.43,94.08c3.87,5.08,11.38.89,8.63-5l-9.8-21.19c-2.41-5.19-10.68-1.5-9.14,3.86a123.79,123.79,0,0,0,12.17,28.43c3.29,5.63,11.39.69,8.63-5L33.73,67.58c-2.56-5.33-10.27-1.43-9.14,3.85a56.53,56.53,0,0,0,6.84,17.26c2.79,4.66,11.41,1.54,9.14-3.85L34.82,71.18c-2.42-5.76-11.88-3.53-9.65,2.65a100.69,100.69,0,0,0,15.44,27.86c3.13,4,9.77-.36,8.36-4.86A53.14,53.14,0,0,0,41.31,81.4c-2.52-3.48-10-3-9.32,2.52a56.8,56.8,0,0,0,7.8,22.8c3.45,5.65,11.1.71,8.64-5L40.56,83.24c-2.22-5.2-10.89-1.49-9.14,3.86a53.17,53.17,0,0,0,11.14,19.25c3.24,3.62,10.06-.17,8.35-4.86l-6.5-17.91c-2.16-6-11.28-3.66-9.64,2.66a102.54,102.54,0,0,0,9.33,23.47c2.68,4.89,11,1.59,9.14-3.85L49.71,95.48l-9.13,3.85L46,111.52c2.51,5.65,9.87,1.22,9.13-3.85L53.36,95.39l-9.64,2.66,4.48,12.41c2,5.43,9.25,4.31,9.83-1.33l1.34-13.24h-10A38.64,38.64,0,0,1,48,110.32c-1.7,5.81,5.95,8.16,9.14,3.86A65.85,65.85,0,0,1,68.26,102.6l-7.85-6.06a24.5,24.5,0,0,1-6.07,7l7.07,7.07L78.93,95.22l-7.07-7.07L60.54,98.23c-4.16,3.71,1.49,11.3,6.06,7.85L83.78,93.15l-6-7.86L62.18,98.83l7.07,7.07A277.85,277.85,0,0,1,93.11,85.19L86,78.12,70.94,90.81,78,97.89a181.74,181.74,0,0,1,24.27-19.75l-6.06-7.86-13.08,11c-5,4.19,2.12,11,7.07,7.07a200.78,200.78,0,0,1,27.2-18l-5-8.64L100.1,70.62l6.06,7.85a251.5,251.5,0,0,1,24.6-18.36c4.49-2.94,1.77-11.11-3.85-9.13a64.68,64.68,0,0,0-15.28,7.65l5.05,8.64,19.18-13.79-6.06-7.86-7.62,8.08,7.07,7.07,8.8-9.53c3.73-4-1.07-11-6.06-7.85l-11.41,7.14,6.84,6.84,9.93-14.78c3.22-4.8-3.88-9.94-7.86-6.06l-11.65,11.4L125.69,54l8.21-12.5c3.34-5.08-3.74-9.41-7.85-6.06L116,43.6l7.85,6.06,7.83-12.95c3.16-5.24-3.66-9.34-7.85-6.06l-9.66,7.53,7.85,6.06,5.78-9.3c2.56-4.12-2.65-9.69-6.84-6.84l-10.89,7.39L117,42.33a36.34,36.34,0,0,1,6.58-9.43c4.07-4.21-1-10.31-6.06-7.85L106,30.7l6.84,6.84,7-11.41c2.18-3.54-1.48-8.84-5.65-7.34A45,45,0,0,0,101.32,26L108.39,33,116,25.67c4-3.84-1.4-11.31-6.06-7.86l-8.09,6,6.06,7.85,4.89-6.3c2.88-3.72.39-9.75-4.87-8.36L97.53,19.77l3.85,9.13L112.3,21c3.56-2.59,2.93-9.8-2.53-9.31a52.83,52.83,0,0,0-15.29,3.52l4.86,8.36,5.3-4.31c3.24-2.62.67-9-3.53-8.53A153,153,0,0,0,74,16.12l3.86,9.14,14.52-7.78c5.06-2.72,1.56-10.56-3.86-9.14l-17.65,4.6,5.64,7.35,2.92-4.14c2.37-3.37-1.65-9-5.65-7.34A250.3,250.3,0,0,0,35.82,28.45l6.06,7.86,6.25-4.93-7.07-7.07C32.23,34.37,27.58,50.16,33.15,63c2.37,5.45,9.31,8.77,13.54,3,4.12-5.58,2.38-15.35.6-21.44-1.64-5.57-9.44-4.21-9.83,1.33A126.56,126.56,0,0,0,41.15,86.1c1.42,5.58,9.61,4.21,9.82-1.33a201,201,0,0,0-1.78-34.24c-.78-5.75-9.68-4.08-9.82,1.33a176.63,176.63,0,0,0,2.19,32.48c1,6.36,10.58,3.62,9.65-2.66a77,77,0,0,0-7.34-23c-2.1-4.26-9.95-2.42-9.31,2.52l2.06,16,9.83-1.33L41.29,62.65l-9.14,3.86L45.33,88.12c2.55,4.17,9.37,2.53,9.32-2.52A87.47,87.47,0,0,0,50.1,58.33c-1.7-5-10.3-4.6-9.82,1.33a186.17,186.17,0,0,0,5.86,33.89C47.57,98.8,56.72,98,56,92.22a185.76,185.76,0,0,0-4.71-24.07c-1.44-5.36-10.06-4.4-9.82,1.33a70.46,70.46,0,0,0,4.35,22c1.88,5,9.87,4.65,9.82-1.32L55.4,65.5l-9.82,1.33,7.53,26.7c1.49,5.3,10.1,4.44,9.82-1.32l-1.59-32.4-9.82,1.33,5.27,29c1.05,5.77,9.57,4.06,9.82-1.33a356.39,356.39,0,0,0-.37-40l-9.82,1.33L62.2,83.4c1,5.86,9.44,3.95,9.82-1.33a202.18,202.18,0,0,0-.27-32.46h-10l3.83,34.15c.7,6.23,10.21,6.58,10,0a94.18,94.18,0,0,0-3.64-23.29c-1.27-4.39-8.84-5.13-9.64,0a137,137,0,0,0-1.49,30.41c.35,5.27,8.74,7.21,9.82,1.33A61.54,61.54,0,0,1,80.76,67.85l-8.63-5-10,20C59.68,87.66,65.83,93,70,88.81L99,59.48l-7.85-6.06-20,26,8.63,5a157.59,157.59,0,0,1,24.89-26l-7.08-7.07L78,76C74,80.89,80.19,87.5,85,83a163.74,163.74,0,0,1,23.55-18.16L102.51,57l-22.22,20c-4.9,4.42,2.13,10.91,7.07,7.07L115.2,62.46c4.45-3.45-1.41-11.11-6.06-7.85L97.21,63l6.06,7.86L114.72,56c3.25-4.2-.75-10.94-6.06-7.85L92.21,57.75l6.06,7.85A96.26,96.26,0,0,1,115,51.1l-6.84-6.84-9.36,15c-2.87,4.61,2.62,8.76,6.84,6.84a57.37,57.37,0,0,0,18.14-13L115.92,47l-3.21,7.32L122,56.89l.61-13.12c.22-4.68-5.45-6.14-8.53-3.54a45.91,45.91,0,0,0-11.55,14.7l9.14,3.85,2.7-13.38c1.09-5.4-6.13-8.94-9.14-3.86L97.3,55l9.14,3.86,3.86-19.69c1.23-6.27-7.7-8.86-9.65-2.66l-5.32,17,9.83,1.33a77.61,77.61,0,0,0-.33-16.55c-.72-5.66-7.63-6.71-9.82-1.33a88.34,88.34,0,0,0-4.85,16.23L100,54.47,101,31.09c.25-5.62-8.52-6.82-9.83-1.33a124.27,124.27,0,0,0-3.08,20.85h10L97.9,26.24c-.06-6.44-9.94-6.45-10,0a32.12,32.12,0,0,0,5.94,19.25A5,5,0,0,0,103,41.64L99.85,25.16,91.5,30l8.67,10.81c3.59,4.48,10.71-1.28,7.85-6.06-4.25-7.1-11.23-15-20.55-11.94-7.36,2.42-10.2,12.46-4.14,17.76,2.62,2.3,7.54,1.73,8.35-2.2a17.51,17.51,0,0,0-4.49-16.26c-2.76-3-7.12-1.14-8.35,2.2-2.68,7.25-6.11,23.28,2.37,28.17,3.45,2,8,1.14,10.86-1.47,3.32-3,4.06-7.55,4.52-11.77.51-4.7-.27-9.56-4.34-12.5a8.89,8.89,0,0,0-11.79,1c-3.11,3.27-4.19,8.55-4.95,12.83-.92,5.15-1.89,11.55.23,16.51,1.44,3.37,4.77,6.14,8.63,5.86,5.07-.38,7.64-4.87,9-9.25,2-6.34,3.15-22.19-7.61-21.28-9.61.81-12.39,17-10.48,24.35,2.63,10.21,15.14,7.1,16-2.39C91.77,49.66,91.42,44,88,40.3A10,10,0,0,0,74.61,39c-7.78,5.53-10.53,20-2.28,26,1.74,1.26,4.64.71,6.06-.78A31.32,31.32,0,0,0,85.66,32.8c-1.12-3.41-5.68-5.11-8.36-2.21a33.42,33.42,0,0,0-7.75,32.05c1.42,5,8,4.5,9.64,0A56.1,56.1,0,0,0,81,31.13a4.91,4.91,0,0,0-3.49-3.49c-14-3.15-13.35,18.2-10.74,26.42,1.24,3.88,7.06,5.17,9.14,1.19a35.61,35.61,0,0,0,3.53-23.69c-.48-2.65-3.73-4.17-6.15-3.49a10.12,10.12,0,0,0-6.17,14.8c1.71,3.2,6.95,3.31,8.63,0,3-6,5.75-13,1.94-19.36a10.85,10.85,0,0,0-15.09-3.66c-2.5,1.63-3.58,5.65-1,7.85a15.53,15.53,0,0,0,11.79,4.13c3-.26,6-3,4.82-6.33-2.2-6.18-7.29-8.95-13.69-8.08-2.09.28-3.72,2.84-3.67,4.82.13,5,5.51,8.55,9.9,5.28a6.93,6.93,0,0,0,2.61-5.86c-.08-1.35-2.6-6.46-3-5.3,1-3-1.66-6.52-4.82-6.33-14.06.87-20.32,13-24.74,24.78l9.82,1.33C50,31,51.73,26.29,56.26,23.42l-7.52-4.31-.12,4c-.2,6.44,9.8,6.43,10,0l.12-4a5,5,0,0,0-7.52-4.32C44,19.39,39.61,27.47,40.66,36.14c.68,5.57,7.76,6.82,9.82,1.33,2.63-7,6.28-16.89,15.1-17.44L60.76,13.7a7.62,7.62,0,0,0-.15,4.72c.25.81,1.55,4.51,2.82,2.65l3-2.3-1,.14,3.85.51-.84-.6,2.48,4.32,0-.9L67.2,27.06a1.53,1.53,0,0,1,1.39,1.09l4.82-6.32c-1.88.15-3.19.11-4.72-1.2l-1,7.85c1.78-1.15,2,1.66,1.94,2.84-.05,2.26-1.48,4.56-2.47,6.5h8.63c-.19,0-.13,0,.2-.11l-6.15-3.49a24.49,24.49,0,0,1-2.52,16l9.14,1.2a24.71,24.71,0,0,1-1.33-7.62c0-1.74,1.53-6.1-.24-6.5l-3.5-3.49A46.12,46.12,0,0,1,69.55,60h9.64a23.13,23.13,0,0,1,5.18-22.33L76,35.46a21.23,21.23,0,0,1-4.7,21.72l6.06-.78c-1.25-.91,1.8-9.5,3.48-9,1,.31.32,4.27.58,4.89-.52,1.53,0,2,1.69,1.45,1.76.59,2.33,0,1.73-1.79.69-1.58.38-4,.88-5.8A18.2,18.2,0,0,1,87,42.64q-2.89-1.76-2.39.32c-.66,1.32-.09,4.83-.46,6.43l-.45,1.7q-1.89,2.52,1.1,1.95c.33-.75-.18-4.6-.13-5.51a39,39,0,0,1,.82-6.08c.44-2.06,1.16-4,1.79-6,.55-1.17.38-.77-.5,1.22a25.61,25.61,0,0,1-.34,3.49l-.27,1.38a1.67,1.67,0,0,0,.43,2.52c.19-1.36-.47-3.76-.48-5.21A33.68,33.68,0,0,1,88.48,27L80.12,29.2A7,7,0,0,1,82,35.73l8.36-2.21c-.79-.69-.22-.84.54-1.17,1.21-.53,3.08.67,3.92,1.33,2,1.54,3.26,4,4.53,6.14l7.85-6.06L98.57,23c-3.43-4.27-9.19.51-8.36,4.87l3.13,16.47,9.14-3.85a23.16,23.16,0,0,1-4.58-14.2h-10l.23,24.37c.07,6.49,9.61,6.39,10,0a107.53,107.53,0,0,1,2.73-18.19L91,31.09,90,54.47c-.25,5.55,8.72,6.91,9.82,1.33a87.31,87.31,0,0,1,4.84-16.23l-9.82-1.33a77,77,0,0,1,.33,16.55c-.51,5.81,8.2,6.51,9.82,1.33l5.32-17-9.65-2.66L96.8,56.18c-1.06,5.38,6.12,8.94,9.14,3.85l8-13.44-9.14-3.85-2.7,13.38c-1.06,5.23,6.46,9.23,9.14,3.86a39,39,0,0,1,10-12.68l-8.54-3.53L112,56.89c-.22,4.72,7.3,7.13,9.32,2.52l3.2-7.32c2.11-4.82-3.63-10.54-7.85-6.06a50.39,50.39,0,0,1-16.11,11.46l6.84,6.84,9.36-15c2.56-4.12-2.66-9.68-6.84-6.84A107.27,107.27,0,0,0,91.2,58.53c-3.78,4.1,1,10.79,6.06,7.86l16.45-9.57L107.65,49,96.2,63.77c-3.12,4,.94,11.44,6.06,7.85l11.93-8.37-6.06-7.86L80.29,77.05l7.07,7.07,22.22-20c4.2-3.79-1.26-10.9-6.06-7.85A178.23,178.23,0,0,0,78,76L85,83l19.63-24.63c4-5-2.07-11.26-7.08-7.07A167.67,167.67,0,0,0,71.13,79.37c-3.89,5.16,4.77,10,8.63,5l20-25.95c3.51-4.55-4-10-7.86-6.05l-29,29.33,7.86,6.06,10-20a5,5,0,0,0-8.63-5A68.63,68.63,0,0,0,61,89.55l9.82,1.33a125.69,125.69,0,0,1,1.13-27.75H62.3a82.86,82.86,0,0,1,3.28,20.63h10L71.75,49.61c-.7-6.28-10.57-6.47-10,0A202.18,202.18,0,0,1,62,82.07l9.82-1.33L66.06,47.42c-1-5.52-10.19-4.28-9.82,1.33a356.39,356.39,0,0,1,.37,40l9.82-1.33-5.27-29c-1-5.54-10.1-4.27-9.82,1.33l1.59,32.4,9.82-1.33L55.22,64.17c-1.51-5.39-9.87-4.39-9.82,1.33l.2,24.67,9.83-1.33a61.57,61.57,0,0,1-4-19.36L41.61,70.8A166.58,166.58,0,0,1,46,92.22l9.82-1.33a171.41,171.41,0,0,1-5.5-31.23L40.45,61a78.42,78.42,0,0,1,4.2,24.61L54,83.08,40.78,61.46C38,56.83,29.5,59.84,31.64,65.31L36.8,78.52c1.86,4.75,10.61,4.75,9.82-1.33l-2.06-16-9.32,2.53a68.59,68.59,0,0,1,6.32,20.65l9.65-2.66a160.9,160.9,0,0,1-1.84-29.82l-9.83,1.33A186.25,186.25,0,0,1,41,84.77l9.82-1.33a118,118,0,0,1-3.33-37.53l-9.82,1.33A30,30,0,0,1,39,55c0,.91-.73,5-.45,5.29q4.71.64,3.56-1.86a21.17,21.17,0,0,1-.59-2.21,25.64,25.64,0,0,1-.58-5.46,29,29,0,0,1,7.19-19.42c4.33-4.94-2.09-11-7.07-7.07l-6.25,4.92c-4.47,3.53,1.32,10.87,6.06,7.86A234.75,234.75,0,0,1,76.4,18.45l-5.65-7.34-2.91,4.13c-2.62,3.72,1.69,8.38,5.64,7.35L91.14,18,87.29,8.84,72.77,16.62c-5,2.67-1.58,10.76,3.85,9.14a138.32,138.32,0,0,1,24.49-5.06l-3.54-8.54-5.3,4.31c-3.78,3.07.3,10.19,4.87,8.36a43.72,43.72,0,0,1,12.63-3.17l-2.52-9.32L96.34,20.27c-4.39,3.18-2,10.67,3.85,9.14l10.42-2.76-4.86-8.35-4.89,6.3c-3.11,4,1,11.58,6,7.85l8.1-6L109,18.59,101.32,26c-4.76,4.59,2.15,10.93,7.07,7.07a29.91,29.91,0,0,1,8.43-4.59l-5.65-7.34-7,11.4c-2.78,4.53,2.58,8.93,6.84,6.84l11.52-5.65-6.06-7.85a45.49,45.49,0,0,0-8.14,11.46c-2,4.12,2.38,9.87,6.84,6.84l10.89-7.4-6.84-6.84-5.78,9.3c-3.23,5.21,3.68,9.32,7.85,6.06l9.66-7.53-7.85-6.06-7.83,13c-3.12,5.16,3.67,9.47,7.85,6.06l10-8.17-7.85-6.06-8.21,12.5c-3.17,4.83,3.86,10,7.85,6.06l11.65-11.39-7.85-6.06-9.92,14.78c-2.81,4.18,2.7,9.42,6.84,6.84L137,52,131,44.17l-8.8,9.53c-4.36,4.71,2.64,11.76,7.07,7.07l7.62-8.08c3.72-3.94-1.26-11.3-6.06-7.85L111.63,58.63c-5.15,3.71-.31,12.32,5.05,8.64a54.62,54.62,0,0,1,12.88-6.65l-3.85-9.14A271.59,271.59,0,0,0,99.09,71.4c-4.28,3.63,1.44,11.19,6.06,7.85l12.26-8.85c5.12-3.71.69-11.82-5-8.64A217.4,217.4,0,0,0,83.14,81.29l7.07,7.07,13.09-11c4.31-3.64-1.37-11-6.06-7.86a198,198,0,0,0-26.3,21.31C66.24,95.35,73.16,102,78,97.89l15.1-12.7C98.12,81,91,74.28,86,78.12A276.34,276.34,0,0,0,62.18,98.83c-4.66,4.54,2.26,11.26,7.07,7.07L84.8,92.36c4.21-3.67-1.5-11.29-6.06-7.85L61.56,97.45l6.06,7.85L78.93,95.22c4.82-4.29-2.26-11.3-7.07-7.07L54.34,103.57c-4.9,4.31,2.16,11.06,7.07,7.07a32.14,32.14,0,0,0,7.64-9c3-5.17-3.63-9.54-7.86-6.06a76,76,0,0,0-12.74,13.6L57.59,113a46.57,46.57,0,0,0,1.78-17.09,5,5,0,0,0-10,0L48,109.13l9.82-1.33L53.36,95.39c-2.22-6.16-10.55-3.63-9.64,2.66l1.78,12.28,9.14-3.85-5.43-12.2c-2.3-5.15-11-1.49-9.14,3.86l3.53,10.38,9.14-3.85a91.92,91.92,0,0,1-8.33-21.09l-9.64,2.66,6.5,17.9,8.36-4.86a41.22,41.22,0,0,1-8.57-14.84l-9.13,3.85,7.86,18.43,8.64-5A45,45,0,0,1,42,83.92l-9.32,2.52a44.67,44.67,0,0,1,6.65,13l8.36-4.86A85.32,85.32,0,0,1,34.82,71.18l-9.65,2.65L30.92,87.5l9.14-3.86a48.23,48.23,0,0,1-5.83-14.86L25.1,72.63l13.19,27.5,8.63-5A113.4,113.4,0,0,1,35.76,69l-9.14,3.85,9.81,21.19,8.63-5A45.32,45.32,0,0,1,42,38.38l-8.63-5-3.83,7.12c-2.58,4.79,4,10.52,7.85,6.06a24.38,24.38,0,0,1,6-5.14l-6.84-6.84-6.6,11.79C27.26,51.1,34,56.9,37.77,52.39A183.48,183.48,0,0,0,53.54,30.5c3.37-5.5-5.26-10.51-8.64-5A184.09,184.09,0,0,0,30,55.43C28.28,60,35.37,64.19,38.4,60.3a305.78,305.78,0,0,0,20.09-29c3.43-5.66-4.87-10-8.64-5.05A122.24,122.24,0,0,0,31.79,60.44c-2,5.72,6,8.15,9.14,3.85L64.12,32.08l-8.63-5L39.23,62.25c-2.66,5.76,5.17,10.6,8.63,5,7.61-12.22,15.28-24.42,25-35.07l-8.36-4.87a188.29,188.29,0,0,1-8.71,20c-1.61,3.16-3.31,6.29-5.1,9.36C50,58,49.21,59.24,48.44,60.5c-.91,1.48-3.54,3.57-1.1,3.85l4.31,2.48c.64,1.07,1-3.12,1.17-4.06.36-1.53.76-3.05,1.22-4.55A60.36,60.36,0,0,1,58,48.53,63.7,63.7,0,0,1,70.82,31.44L62.28,27.9a76,76,0,0,1-3.45,18.8,68.6,68.6,0,0,1-3.23,8.35c-.58,1.24-3.12,7.88-4.18,8.2l3.85.51-.83-.58,2.3,3c-2-5.49,3-14.76,5.79-19.23H53.89l3.86,6.45c3.29,5.52,11.94.5,8.63-5Z" transform="translate(-0.55 -0.98)"/><path class="cls-2" d="M86.46,137.53a249.2,249.2,0,0,0,53.85-42.65l-8.54-3.54c-.06,4.4-3.66,8.94-6.22,12.36a65.05,65.05,0,0,1-33.14,23.13c-6.13,1.88-3.51,11.54,2.66,9.64a76.52,76.52,0,0,0,29.16-16.55c7.6-6.91,17.39-17.75,17.54-28.58.06-4.28-5.54-6.67-8.53-3.54a239.53,239.53,0,0,1-51.82,41.09c-5.55,3.26-.52,11.91,5,8.64Z" transform="translate(-0.55 -0.98)"/><path class="cls-2" d="M132.49,90.73c.81,11.37-10.48,17.06-19,21.68l-14.92,8-7.47,4c-2.57,1.39-6,4.11-9.13,3.55v9.64l8.66-2.33c6.21-1.67,3.57-11.32-2.66-9.64L79.27,128c-4.51,1.21-5,8.73,0,9.64,7.64,1.38,13.68-2.86,20.16-6.35q10.3-5.55,20.6-11.11c11.33-6.14,23.5-15,22.46-29.48-.46-6.38-10.47-6.43-10,0Z" transform="translate(-0.55 -0.98)"/><path class="cls-3" d="M103.41,87.71a44.41,44.41,0,0,0-12.2,8.38c-4.67,4.45,2.41,11.51,7.07,7.07a36.71,36.71,0,0,1,10.18-6.82c2.45-1.12,3.06-4.67,1.79-6.84-1.47-2.52-4.38-2.92-6.84-1.79Z" transform="translate(-0.55 -0.98)"/></g><g id="Layer_2" data-name="Layer 2"><path d="M22.26,85.21a56.67,56.67,0,0,0-20.21,31c-2.62,10.61-2.62,24,6.71,31.44,11.34,9,26.24,3.19,38.08-1.44a361,361,0,0,0,34.64-15.62C104.4,118.68,126,104,144.81,86.22a220.66,220.66,0,0,0,25-28c7.79-10.37,17.27-22.75,15.87-36.5C184.32,8.63,172.69.89,160.16,1c-14.65.1-26,10.55-35.79,20.22-4.59,4.52,2.48,11.59,7.07,7.07,7.19-7.09,15.48-15.75,26-17.14,9.9-1.31,19.44,4.42,18.23,15.33-1.16,10.49-9.83,20.63-16.1,28.7a211.08,211.08,0,0,1-20.72,22.9,259,259,0,0,1-51.24,37.76c-9,5.15-18.3,9.84-27.76,14.11-9.73,4.39-20.13,9.4-30.58,11.74-5.73,1.28-12.9,1.26-16.5-4.24-2.9-4.45-2.64-10.61-1.76-15.61A47.89,47.89,0,0,1,29.33,92.29c5.08-3.94-2-11-7.07-7.08Z" transform="translate(-0.55 -0.98)"/><path d="M70.28,138.47c18.36,5.28,39.05,2.22,54.55-9.2a64.23,64.23,0,0,0,25.68-45.61c.65-6.39-9.36-6.35-10,0-3.31,32.83-36.16,54.2-67.57,45.17-6.2-1.79-8.84,7.86-2.66,9.64Z" transform="translate(-0.55 -0.98)"/><path d="M45,106.7c-6.24-6.83-12.44-13.78-16-22.43a53.89,53.89,0,0,1-3.9-24.5A52.21,52.21,0,0,1,48.57,20.45C63.1,11,83.06,8.84,99.81,12.62c18.15,4.11,26.47,18,34.25,33.65,2.87,5.76,11.5.7,8.64-5.05-6.65-13.33-14.22-27.1-28.14-34C100.27.19,82.72-.2,67.29,2.61,36.9,8.15,13.68,35,15,66.36,15.83,85.53,25.42,100,38,113.77c4.35,4.76,11.41-2.32,7.07-7.07Z" transform="translate(-0.55 -0.98)"/><path d="M146.35,44.93a14.47,14.47,0,0,1,.31-3.35L144,39.77c-.72.09-2.57,3.41-3.28,4.23a90.18,90.18,0,0,1-7.66,7.61c-5.51,5-11.21,9.71-16.87,14.48Q98.13,81.32,79.53,95.91c-10.85,8.51-23,20-36.57,23.91-.27.07-4.34.55-4.06.2-1.51,1.89,2.79,1.33,3.22,1.23a8.87,8.87,0,0,0,5.93-3.8c2.91-4.79-.73-10.39-5.94-10.63-6.44-.29-6.42,9.71,0,10l.81,0-3.53-1.46c-1.47-1.17,1.73-3-.54-3.84a5.67,5.67,0,0,0-2.11.21,10.15,10.15,0,0,0-4.56,1.75,8.47,8.47,0,0,0-3.26,6.73c0,6.34,5.69,10.35,11.61,10.16,6.76-.22,13.83-4.45,19.44-7.86A201,201,0,0,0,78.48,109.3q20.1-15.54,39.63-31.8c11.51-9.6,24.82-19,33.6-31.32,3.88-5.44,4-14.08-4.37-14.87-8-.77-10.8,7-11,13.62-.18,6.44,9.82,6.43,10,0Z" transform="translate(-0.55 -0.98)"/><path d="M50.78,51.61c-3.5-2.26-8.1-.75-10.34,2.49-2.38,3.44-1,8,2.35,10.25a7.6,7.6,0,0,0,9.82-1.12,8.18,8.18,0,0,0-.06-10.9,8.3,8.3,0,0,0-10-1.27,8.14,8.14,0,0,0-2.88,11C41.89,66,47.88,67,51.13,63.77a7,7,0,1,0-11.66-5.61,7.16,7.16,0,0,0,6.79,7.26,7.09,7.09,0,0,0,3.61-.84,5,5,0,0,0,2.3-3,5.12,5.12,0,0,0-.5-3.85,5.06,5.06,0,0,0-3-2.3,5.87,5.87,0,0,0-3.86.51,3.44,3.44,0,0,1,3.32-.07c-.43-.26-.28-.14.46.38.49.71.63.9.43.56s-.1-.11.29.69a3.58,3.58,0,0,1,0,1.78,3.26,3.26,0,0,1-.87,1.53c-.74.52-.94.67-.61.47s.11-.11-.72.29q.75-.19-.72.06c.52,0,.28,0-.72-.12-.86-.43-1.08-.51-.64-.27l-1.34-1.33c-.3-.85-.37-1-.23-.54a3,3,0,0,1,0-1.71c-.14.49-.06.32.25-.52a3.25,3.25,0,0,1,1.87-1.37c-.51.13-.32.12.58-.05.89.16,1.08.19.56.07q1.11.53.6.24c-.33-.2-.16-.07.5.39.47.68.58.8.31.35a2.4,2.4,0,0,1,.4,1.45c0-1-.37,1.07-.06.22-.36.75-.41.89-.16.43-.56.67-.67.82-.32.46-.72.51-.86.63-.44.36l.22-.12c-.84.33-1,.42-.52.27s.31-.08-.61.07c.88,0-1.31-.38-.27,0,.38.11.16,0-.65-.28.43.26.29.14-.43-.37.34.37.23.22-.35-.47.16.33.14.26-.07-.18s-.21-.52-.11-.17c-.09-.95-.13-1.17-.1-.64s0,.31.11-.64a3.6,3.6,0,0,1-.12.44l.32-.78c-.26.43-.13.28.4-.45-.36.35-.2.23.49-.35-.44.25-.26.17.57-.22.92-.09,1.18-.12.77-.1a1.29,1.29,0,0,1-.34,0c1,.16,1.17.18.66,0,.83.38,1,.45.57.22-.75-.46.92.81.31.2.52.73.65.88.39.46.32.86.41,1.05.28.56a3,3,0,0,1,0,1.77l0-.21c-.39.85-.47,1.06-.21.62-.59.71-.71.88-.36.52-1.07,1-.62.56-.28.29-.87.34-1.06.43-.57.29-1,.1-1.21.13-.69.11-1-.17-1.2-.2-.7-.07-.85-.41-1.05-.48-.62-.21a5,5,0,0,0,6.84-1.8,5.1,5.1,0,0,0-1.79-6.84Z" transform="translate(-0.55 -0.98)"/><path d="M97.82,53.39c-1.75,4.23,2,8.83,6.08,9.38,4.48.6,8-3.26,8-7.55,0-4.85-4.8-7.91-9.26-7A7.71,7.71,0,0,0,97,57.69a8.08,8.08,0,0,0,9.54,5.89,8.38,8.38,0,0,0,6.67-8.34,8,8,0,0,0-8.09-7.84,7.51,7.51,0,0,0-7.17,9,7.14,7.14,0,0,0,10.74,4.66c2.29-1.4,4.14-4.51,3.26-7.24-1.11-3.43-5.72-5.22-8.75-3a5.43,5.43,0,0,0-2.3,3,5.15,5.15,0,0,0,.51,3.86c1.34,2.08,4.59,3.45,6.84,1.79a4.28,4.28,0,0,1-3.65,0l-2.47-4.32a3.51,3.51,0,0,1,1.2-2.49c.39-.27.43-.31.1-.11.79-.29,1-.39.62-.29s-.15.06.73-.11a3.06,3.06,0,0,1,1.59.43l.62.48c.5.72.62.87.36.43l.33.74c-.11-.52-.09-.32.08.6-.16.87-.2,1.11-.11.71s0-.17-.3.62c.27-.44.15-.3-.34.42l-.6.46q-1.22.45-.48.21l-.81.11c.53,0,.35,0-.55-.13q.57.16-.09-.09t-.12,0c-.61-.52-.78-.64-.51-.37s.14.11-.35-.43c-.27-.76-.34-.88-.19-.37l-.1-.74c0,.54,0,.4.11-.44-.24.94.6-.9.06-.09.48-.58.6-.73.34-.47s-.12.15.48-.35c-.79.51,1.07-.29.21-.06-.52.11-.35.1.53,0-.4,0-.36,0,.13.06s.53.08.13,0c.73.34.92.43.58.24s-.17-.06.47.38c-.35-.37-.26-.25.28.38-.5-.71.34,1.09.11.19l.12.79c0-.53,0-.36-.11.53.12-.37.1-.34-.06.1a2,2,0,0,1-.61.95c-.7.49-.84.59-.41.32l-.73.3c.89-.27-1.19,0-.32,0-.9-.16-1.09-.18-.57-.07-.75-.36-1-.44-.62-.25s.15.06-.52-.4a2.21,2.21,0,0,1-.64-1q-.26-.69-.09-.15c-.09-.94-.14-1.14-.15-.61l.1-.85c-.16.48-.09.31.23-.53.54-.64.68-.81.42-.53s-.08.14.56-.41a3.29,3.29,0,0,1,2.44-.26q-.74-.22.51.21l.61.47c-.35-.37-.24-.23.31.42l.3.74c-.13-.52-.1-.32.07.6-.17.91-.17,1.11,0,.61a5,5,0,0,0-.5-3.85,5,5,0,0,0-6.85-1.8,5.93,5.93,0,0,0-2.29,3Z" transform="translate(-0.55 -0.98)"/><path d="M61.94,56.24C63.27,64,69,74.6,78.32,73.64a11.59,11.59,0,0,0,8.93-6.72c2.08-4.19,1.52-8.67,2.34-13.13l-9.82-1.32c-.14,3-.52,9.23-4.65,9.58a5.14,5.14,0,0,0-5,5l0,1.31c-.23,6.44,9.77,6.43,10,0l0-1.31-5,5c10.48-.88,14.23-10.29,14.65-19.58C90,46.92,81,45.54,80,51.14c-.36,1.94,0,12-2.6,12.55-1.24.24-2.68-2.12-3.19-2.93a18.6,18.6,0,0,1-2.57-7.18c-1.09-6.33-10.72-3.65-9.65,2.66Z" transform="translate(-0.55 -0.98)"/><path d="M39.51,120.15a2.2,2.2,0,0,1,1.94,1.95l9.14-3.86-1.84-3.13-5.65,7.35a15.66,15.66,0,0,1,1.46.81c1.95,1.55,4.47,2,6.56.39,1.83-1.46,2.73-4.37,1.29-6.45l-2.35-3.42-7.85,6.06,3.48,4.45,7.07-7.07-4.12-5-6.06,7.85a17.28,17.28,0,0,1,3.4,3.21l7.85-6.06-4.69-5.38c-3.69-4.23-11.13,1.39-7.86,6.06l2.83,4,8.63-5L49.8,113,42,119.06a8.09,8.09,0,0,1,1.55,3.39,5,5,0,1,0,9.64-2.65A19.37,19.37,0,0,0,49,112c-1.58-1.89-4.78-1.81-6.57-.39s-2.8,4.43-1.28,6.45L44.11,122c1.61,2.16,4.32,3.27,6.84,1.79,2.18-1.27,3.35-4.61,1.79-6.84l-2.82-4-7.85,6,4.69,5.39a5,5,0,0,0,6.56.39c1.78-1.42,2.79-4.42,1.29-6.45a28.36,28.36,0,0,0-7-6.8,5,5,0,0,0-6.45,1.29,5.07,5.07,0,0,0,.39,6.56l4.12,5c1.73,2.08,5.28,1.79,7.07,0,2.1-2.1,1.67-4.93,0-7.07l-3.48-4.45c-1.52-1.94-4.82-1.79-6.57-.4s-2.72,4.37-1.29,6.45l2.36,3.42,7.85-6.06a20.8,20.8,0,0,0-5.87-3.37c-4.21-1.61-7.72,3.82-5.65,7.34L42,123.29c2.91,4.94,10.46,1.64,9.14-3.85a12.24,12.24,0,0,0-8.94-8.94,5,5,0,1,0-2.65,9.65Z" transform="translate(-0.55 -0.98)"/></g></svg>