<svg width="76" height="76" viewBox="0 0 76 76" fill="none" xmlns="http://www.w3.org/2000/svg">
<path d="M66.4258 33.25H67.6875C69.6617 33.25 71.25 31.6617 71.25 29.6875V10.6875C71.25 9.24768 70.3891 7.94143 69.0531 7.39221C67.7172 6.84299 66.1883 7.13987 65.1641 8.16409L58.9891 14.3391C45.9859 1.49924 25.0414 1.54378 12.1125 14.4875C-0.875782 27.4758 -0.875782 48.5242 12.1125 61.5125C25.1008 74.5008 46.1492 74.5008 59.1375 61.5125C60.993 59.6571 60.993 56.6438 59.1375 54.7883C57.282 52.9328 54.2687 52.9328 52.4133 54.7883C43.1359 64.0656 28.0992 64.0656 18.8219 54.7883C9.54453 45.511 9.54453 30.4742 18.8219 21.1969C28.0547 11.9641 42.9727 11.9196 52.2648 21.0485L46.1641 27.1641C45.1398 28.1883 44.843 29.7172 45.3922 31.0531C45.9414 32.3891 47.2477 33.25 48.6875 33.25H66.4258Z" fill="white"/>
</svg>
