<svg width="126" height="52" viewBox="0 0 126 52" fill="none" xmlns="http://www.w3.org/2000/svg">
<g clip-path="url(#clip0_1_49)">
<path d="M114.672 21.812C117.731 23.7586 117.762 26.9671 114.74 28.9716L83.7989 49.4986C81.575 50.9739 78.2468 51.4324 75.3205 50.67C72.3942 49.9075 70.4795 48.0922 70.46 46.0375L70.0746 5.57676C70.0552 3.53792 71.9348 1.67066 74.846 0.852614C77.7573 0.0345645 81.0938 0.445367 83.3452 1.86231L114.672 21.7962L114.672 21.812ZM10.2523 22.8065L41.1933 2.27958C43.4172 0.804211 46.7454 0.345739 49.6717 1.10819C52.598 1.87064 54.5127 3.68595 54.5323 5.7406L54.9175 46.1856C54.9369 48.2244 53.0573 50.0917 50.146 50.9097C47.2348 51.7278 43.8983 51.317 41.6468 49.9L10.3205 29.9662C7.26128 28.0195 7.23072 24.8111 10.2523 22.8065Z" fill="white"/>
</g>
<defs>
<clipPath id="clip0_1_49">
<rect width="50.5783" height="124.54" fill="white" transform="translate(124.535) rotate(89.4543)"/>
</clipPath>
</defs>
</svg>
