<svg width="1169" height="40" viewBox="0 0 1169 40" fill="none" xmlns="http://www.w3.org/2000/svg">
<rect width="1169" height="40" rx="20" fill="#E9E9E9"/>
<path d="M32.4383 19.7176C32.4383 21.4207 31.8853 22.9939 30.9538 24.2703L35.6521 28.9713C36.116 29.4351 36.116 30.1884 35.6521 30.6522C35.1882 31.116 34.4348 31.116 33.9709 30.6522L29.2727 25.9511C27.996 26.8861 26.4225 27.4352 24.7191 27.4352C20.4551 27.4352 17 23.9809 17 19.7176C17 15.4544 20.4551 12 24.7191 12C28.9832 12 32.4383 15.4544 32.4383 19.7176ZM24.7191 25.0606C25.4209 25.0606 26.1158 24.9224 26.7642 24.6539C27.4126 24.3854 28.0017 23.9918 28.4979 23.4957C28.9941 22.9995 29.3878 22.4105 29.6563 21.7623C29.9249 21.114 30.0631 20.4193 30.0631 19.7176C30.0631 19.016 29.9249 18.3212 29.6563 17.673C29.3878 17.0247 28.9941 16.4357 28.4979 15.9396C28.0017 15.4434 27.4126 15.0499 26.7642 14.7814C26.1158 14.5129 25.4209 14.3747 24.7191 14.3747C24.0173 14.3747 23.3224 14.5129 22.6741 14.7814C22.0257 15.0499 21.4366 15.4434 20.9403 15.9396C20.4441 16.4357 20.0505 17.0247 19.7819 17.673C19.5133 18.3212 19.3751 19.016 19.3751 19.7176C19.3751 20.4193 19.5133 21.114 19.7819 21.7623C20.0505 22.4105 20.4441 22.9995 20.9403 23.4957C21.4366 23.9918 22.0257 24.3854 22.6741 24.6539C23.3224 24.9224 24.0173 25.0606 24.7191 25.0606Z" fill="#5F5F5F"/>
</svg>
